<?xml version="1.0" encoding="utf-8"?>
<!-- Generator: Adobe Illustrator 16.0.0, SVG Export Plug-In . SVG Version: 6.00 Build 0)  -->
<!DOCTYPE svg PUBLIC "-//W3C//DTD SVG 1.1//EN" "http://www.w3.org/Graphics/SVG/1.1/DTD/svg11.dtd">
<svg version="1.1" id="icons" xmlns="http://www.w3.org/2000/svg" xmlns:xlink="http://www.w3.org/1999/xlink" x="0px" y="0px"
	 width="64px" height="64px" viewBox="0 0 64 64" enable-background="new 0 0 64 64" xml:space="preserve">
<g>
	<g>
		<g>
			<path fill="#FFCE54" d="M36.07,51.5L36,51.51h-4V44.5h4.67c-0.439,0.91-0.68,1.93-0.68,3v0.01v3
				C35.99,50.85,36.011,51.18,36.07,51.5z"/>
		</g>
	</g>
	<g>
		<g>
			<rect x="10" y="44.5" fill="#545C66" width="4" height="7.01"/>
		</g>
	</g>
	<g>
		<g>
			<rect x="32.002" y="44.5" fill="#545C66" width="4" height="7.01"/>
		</g>
	</g>
	<g>
		<g>
			<path fill="#FFCE54" d="M10,44.5v7.01H7v8.99H2c-0.55,0-1-0.45-1-1v-7c0-4.42,3.58-8,8-8H10z"/>
		</g>
	</g>
	<g>
		<g>
			<path fill="#ED5565" d="M51.99,43.5v2c0,1.66,1.351,3,3,3v0.01H57c1.65,0,3,1.34,3,3c0,1.65-1.35,3-3,3H42.99c-3.87,0-7-3.14-7-7
				V47.5c0-1.07,0.24-2.09,0.68-3c1.12-2.37,3.53-4,6.32-4h6C50.65,40.5,51.99,41.84,51.99,43.5z M44.99,47.5c0-1.11-0.89-2-2-2
				c-1.1,0-2,0.89-2,2c0,1.1,0.9,2,2,2C44.101,49.5,44.99,48.6,44.99,47.5z"/>
		</g>
	</g>
	<g>
		<g>
			<path fill="#E6E9ED" d="M42.99,45.5c1.11,0,2,0.89,2,2c0,1.1-0.89,2-2,2c-1.1,0-2-0.9-2-2C40.99,46.39,41.891,45.5,42.99,45.5z"
				/>
		</g>
	</g>
	<g>
		<g>
			<path fill="#DA4453" d="M35.99,47.51c0,3.86,3.13,7,7,7H57c1.65,0,3-1.35,3-3v3h0.011c0,1.65-1.341,3-3,3H42.99
				c-3.53,0-6.45-2.62-6.92-6.01c-0.06-0.32-0.08-0.65-0.08-0.99V47.51z"/>
		</g>
	</g>
	<g>
		<g>
			<path fill="#656D78" d="M42.99,57.51H34v2.99H7v-8.99h3h4h18h4l0.07-0.01C36.54,54.89,39.46,57.51,42.99,57.51z"/>
		</g>
	</g>
	<g>
		<g>
			<polygon fill="#965353" points="63,57.51 63,60.5 44,60.5 34,60.5 34,57.51 42.99,57.51 57.011,57.51 			"/>
		</g>
	</g>
	<g>
		<g>
			<path fill="#FFCE54" d="M32,44.5v7.01H14V44.5h2c0,1.66,3.131,3.01,7,3.01c3.87,0,7-1.35,7-3.01H32z"/>
		</g>
	</g>
	<g>
		<g>
			<path fill="#EAC6BB" d="M30,38.77v5.73c0,1.66-3.13,3.01-7,3.01c-3.869,0-7-1.35-7-3.01v-5.73c2.091,1.101,4.471,1.73,7,1.73
				C25.53,40.5,27.91,39.87,30,38.77z"/>
		</g>
	</g>
	<g>
		<g>
			<path fill="#DA4453" d="M41.07,18.51c-1.12,0.09-2.21,0.58-3.07,1.46V19.49h0.021c-0.05-2.811,2.18-5.04,5-5
				C43.04,16.15,42.28,17.6,41.07,18.51z"/>
		</g>
	</g>
	<g>
		<g>
			<path fill="#ED5565" d="M41.07,18.51c1.4-0.12,2.84,0.37,3.91,1.48c-1.92,1.99-5.04,2-6.98,0.02v-0.04
				C38.86,19.09,39.95,18.6,41.07,18.51z"/>
		</g>
	</g>
	<g>
		<g>
			<path fill="#ED5565" d="M38,19.49H8.021H8V18.5c0-8.28,6.721-15,15-15c8.28,0,15,6.72,15,15V19.49z"/>
		</g>
	</g>
	<g>
		<g>
			<path fill="#DA4453" d="M23,3.5c-0.507,0-1.008,0.026-1.501,0.076c7.575,0.754,13.498,7.15,13.498,14.924v0.99H38V18.5
				C38,10.22,31.28,3.5,23,3.5z"/>
		</g>
	</g>
	<g>
		<g>
			<path fill="#656D78" d="M32,27.49c1.11,0,2-0.891,2-2v2c0,2.77-2.229,5-5,5h-3.5c-1.38,0-2.5-1.12-2.5-2.5s1.12-2.5,2.5-2.5H32z"
				/>
		</g>
	</g>
	<g>
		<g>
			<path fill="#656D78" d="M14,27.49h6.5c1.381,0,2.5,1.12,2.5,2.5s-1.119,2.5-2.5,2.5H17c-2.76,0-5-2.23-5-5v-2
				C12,26.6,12.9,27.49,14,27.49z"/>
		</g>
	</g>
	<g>
		<g>
			<path fill="#EAC6BB" d="M38,19.49v0.479c-0.01,0.011-0.01,0.011-0.02,0.021C37.99,20,37.99,20,38,20.01v5.49
				c0,5.76-3.239,10.76-8,13.27c-2.09,1.101-4.47,1.73-7,1.73c-2.529,0-4.909-0.63-7-1.73c-4.76-2.51-8-7.51-8-13.27v-6.01h0.021H38
				z M25.5,27.49c-1.38,0-2.5,1.12-2.5,2.5c0-1.38-1.119-2.5-2.5-2.5H14c-1.1,0-2-0.891-2-2v2c0,2.77,2.24,5,5,5h3.5
				c1.381,0,2.5-1.12,2.5-2.5c0,1.38,1.12,2.5,2.5,2.5H29c2.771,0,5-2.23,5-5v-2c0,1.109-0.89,2-2,2H25.5z"/>
		</g>
	</g>
	<g>
		<g>
			<g>
				<path fill="#D3B1A9" d="M38,19.49h-3.003v0.479c-0.01,0.011-0.01,0.011-0.02,0.021c0.01,0.01,0.01,0.01,0.02,0.02v5.49
					c0,5.76-3.239,10.76-8,13.27c-1.671,0.88-3.528,1.452-5.498,1.649C21.993,40.468,22.492,40.5,23,40.5c2.53,0,4.91-0.63,7-1.73
					c4.761-2.51,8-7.51,8-13.27v-5.49C37.99,20,37.99,20,37.98,19.99c0.01-0.01,0.01-0.01,0.02-0.021V19.49z"/>
			</g>
		</g>
	</g>
</g>
<g>
	<g id="_x33_5_avatar_x2C__man_x2C__style_x2C__people_x2C__hairstyle_x2C__barbershop_2_">
		<g>
			<g>
				<g>
					<g>
						<path d="M1,53.503c-0.553,0-1-0.447-1-1c0-4.964,4.038-9.002,9.002-9.002c0.553,0,1,0.447,1,1s-0.447,1-1,1
							C5.141,45.501,2,48.642,2,52.503C2,53.056,1.553,53.503,1,53.503z"/>
					</g>
				</g>
				<g>
					<g>
						<path d="M16,45.502L16,45.502l-6.998-0.001c-0.553,0-1-0.448-1-1c0-0.553,0.448-1,1-1l0,0L16,43.502c0.553,0,1,0.448,1,1
							C17,45.055,16.552,45.502,16,45.502z"/>
					</g>
				</g>
				<g>
					<g>
						<path d="M36.668,45.502L36.668,45.502L30,45.501c-0.553,0-1-0.448-1-1c0-0.553,0.448-1,1-1l0,0l6.668,0.001
							c0.553,0,1,0.448,1,1C37.668,45.055,37.22,45.502,36.668,45.502z"/>
					</g>
				</g>
				<g>
					<g>
						<path d="M1.002,60.5c-0.552,0-1-0.447-1-1L0,52.503c0-0.552,0.447-1,1-1l0,0c0.552,0,1,0.447,1,1L2.002,59.5
							C2.002,60.052,1.555,60.5,1.002,60.5z"/>
					</g>
				</g>
				<g>
					<g>
						<path d="M2.002,61.5c-1.103,0-2-0.897-2-2c0-0.553,0.447-1,1-1s1,0.447,1,1v0.002c0.553,0,1,0.446,1,0.999
							C3.002,61.053,2.555,61.5,2.002,61.5z"/>
					</g>
				</g>
				<g>
					<g>
						<path d="M44,61.5H2.002c-0.553,0-1-0.447-1-1s0.447-1,1-1H44c0.553,0,1,0.447,1,1S44.553,61.5,44,61.5z"/>
					</g>
				</g>
			</g>
			<g>
				<g>
					<path d="M16,45.502c-0.553,0-1-0.447-1-1v-5.731c0-0.553,0.447-1,1-1s1,0.447,1,1v5.731C17,45.055,16.553,45.502,16,45.502z"/>
				</g>
			</g>
			<g>
				<g>
					<path d="M30,45.501c-0.553,0-1-0.447-1-1v-5.73c0-0.553,0.447-1,1-1s1,0.447,1,1v5.73C31,45.054,30.553,45.501,30,45.501z"/>
				</g>
			</g>
			<g>
				<g>
					<path d="M23,41.501c-8.822,0-16-7.178-16-16c0-0.552,0.447-1,1-1s1,0.448,1,1c0,7.72,6.28,14,14,14s14-6.28,14-14
						c0-0.552,0.447-1,1-1s1,0.448,1,1C39,34.323,31.822,41.501,23,41.501z"/>
				</g>
			</g>
			<g>
				<g>
					<path d="M38,19.5c-0.553,0-1-0.448-1-1c0-7.72-6.28-14-14-14s-14,6.28-14,14c0,0.552-0.447,1-1,1s-1-0.448-1-1
						c0-8.822,7.178-16,16-16s16,7.178,16,16C39,19.052,38.553,19.5,38,19.5z"/>
				</g>
			</g>
			<g>
				<g>
					<path d="M8,26.501c-0.553,0-1-0.448-1-1V18.5c0-0.552,0.447-1,1-1s1,0.448,1,1v7.001C9,26.053,8.553,26.501,8,26.501z"/>
				</g>
			</g>
			<g>
				<g>
					<path d="M38,26.501c-0.553,0-1-0.448-1-1V18.5c0-0.552,0.447-1,1-1s1,0.448,1,1v7.001C39,26.053,38.553,26.501,38,26.501z"/>
				</g>
			</g>
		</g>
		<g>
			<g>
				<g>
					<path d="M29.002,33.492c-0.553,0-1-0.447-1-1c0-0.552,0.447-1,1-1c2.206,0,4-1.794,4-4c0-0.552,0.447-1,1-1s1,0.448,1,1
						C35.002,30.801,32.311,33.492,29.002,33.492z"/>
				</g>
			</g>
			<g>
				<g>
					<path d="M32.002,28.492c-0.553,0-1-0.448-1-1s0.447-1,1-1c0.551,0,0.998-0.448,0.998-0.998c0-0.552,0.447-1,1-1s1,0.448,1,1
						C35,27.147,33.655,28.492,32.002,28.492z"/>
				</g>
			</g>
			<g>
				<g>
					<path d="M32.002,28.492h-6.5c-0.553,0-1-0.448-1-1s0.447-1,1-1h6.5c0.553,0,1,0.448,1,1S32.555,28.492,32.002,28.492z"/>
				</g>
			</g>
			<g>
				<g>
					<path d="M29.002,33.492h-3.5c-0.553,0-1-0.447-1-1c0-0.552,0.447-1,1-1h3.5c0.553,0,1,0.448,1,1
						C30.002,33.045,29.555,33.492,29.002,33.492z"/>
				</g>
			</g>
			<g>
				<g>
					<path d="M25.502,33.492c-1.93,0-3.5-1.57-3.5-3.5s1.57-3.5,3.5-3.5c0.553,0,1,0.448,1,1s-0.447,1-1,1
						c-0.827,0-1.5,0.673-1.5,1.5s0.673,1.5,1.5,1.5c0.553,0,1,0.448,1,1C26.502,33.045,26.055,33.492,25.502,33.492z"/>
				</g>
			</g>
			<g>
				<g>
					<path d="M34.002,28.492c-0.553,0-1-0.448-1-1v-1.998c0-0.552,0.447-1,1-1s1,0.448,1,1v1.998
						C35.002,28.044,34.555,28.492,34.002,28.492z"/>
				</g>
			</g>
		</g>
		<g>
			<g>
				<g>
					<path d="M17,33.492c-3.309,0-6-2.691-6-6c0-0.552,0.447-1,1-1s1,0.448,1,1c0,2.206,1.794,4,4,4c0.553,0,1,0.448,1,1
						C18,33.045,17.553,33.492,17,33.492z"/>
				</g>
			</g>
			<g>
				<g>
					<path d="M14,28.492c-1.653,0-2.998-1.345-2.998-2.998c0-0.552,0.447-1,1-1s1,0.448,1,1c0,0.55,0.447,0.998,0.998,0.998
						c0.553,0,1,0.448,1,1S14.553,28.492,14,28.492z"/>
				</g>
			</g>
			<g>
				<g>
					<path d="M20.5,28.492H14c-0.553,0-1-0.448-1-1s0.447-1,1-1h6.5c0.553,0,1,0.448,1,1S21.053,28.492,20.5,28.492z"/>
				</g>
			</g>
			<g>
				<g>
					<path d="M20.5,33.492H17c-0.553,0-1-0.447-1-1c0-0.552,0.447-1,1-1h3.5c0.553,0,1,0.448,1,1
						C21.5,33.045,21.053,33.492,20.5,33.492z"/>
				</g>
			</g>
			<g>
				<g>
					<path d="M20.5,33.492c-0.553,0-1-0.447-1-1c0-0.552,0.447-1,1-1c0.827,0,1.5-0.673,1.5-1.5s-0.673-1.5-1.5-1.5
						c-0.553,0-1-0.448-1-1s0.447-1,1-1c1.93,0,3.5,1.57,3.5,3.5S22.43,33.492,20.5,33.492z"/>
				</g>
			</g>
			<g>
				<g>
					<path d="M12,28.492c-0.553,0-1-0.448-1-1v-1.998c0-0.552,0.447-1,1-1s1,0.448,1,1v1.998C13,28.044,12.553,28.492,12,28.492z"/>
				</g>
			</g>
		</g>
	</g>
	<g>
		<g>
			<g>
				<path d="M57.012,58.507H42.99c-0.553,0-1-0.447-1-1s0.447-1,1-1h14.021c0.553,0,1,0.447,1,1S57.564,58.507,57.012,58.507z"/>
			</g>
		</g>
		<g>
			<g>
				<path d="M63,61.5H33.996c-0.553,0-1-0.447-1-1v-2.989c0-0.553,0.447-1,1-1H63c0.553,0,1,0.447,1,1V60.5
					C64,61.053,63.553,61.5,63,61.5z M34.996,59.5H62v-0.989H34.996V59.5z"/>
			</g>
		</g>
		<g>
			<g>
				<g>
					<path d="M56.996,55.506c-0.552,0-1-0.447-1-0.999c0-0.553,0.447-1,0.999-1c1.104-0.001,2.001-0.898,2.001-2.001s-0.897-2-2-2
						c-0.553,0-1-0.447-1-1s0.447-1,1-1c2.206,0,4,1.794,4,4S59.202,55.506,56.996,55.506z"/>
				</g>
			</g>
			<g>
				<g>
					<path d="M42.99,55.507c-4.411,0-8-3.589-8-8c0-4.412,3.589-8.002,8-8.002c0.553,0,1,0.447,1,1s-0.447,1-1,1
						c-3.309,0-6,2.692-6,6.002c0,3.309,2.691,6,6,6c0.553,0,1,0.447,1,1S43.543,55.507,42.99,55.507z"/>
				</g>
			</g>
			<g>
				<g>
					<path d="M54.994,49.505c-2.206,0-4-1.794-4-4c0-0.553,0.447-1,1-1s1,0.447,1,1c0,1.103,0.897,2,2,2c0.553,0,1,0.447,1,1
						S55.547,49.505,54.994,49.505z"/>
				</g>
			</g>
			<g>
				<g>
					<path d="M51.99,44.497c-0.553,0-1-0.447-1-1c0-1.101-0.896-1.996-1.996-1.996c-0.553,0-1-0.447-1-1s0.447-1,1-1
						c2.203,0,3.996,1.793,3.996,3.996C52.99,44.05,52.543,44.497,51.99,44.497z"/>
				</g>
			</g>
			<g>
				<g>
					<path d="M48.994,41.501H42.99c-0.553,0-1-0.447-1-1s0.447-1,1-1h6.004c0.553,0,1,0.447,1,1S49.547,41.501,48.994,41.501z"/>
				</g>
			</g>
			<g>
				<g>
					<path d="M57.012,58.507c-0.552,0-1-0.447-1-0.999c0-0.553,0.447-1,0.999-1c1.104-0.001,2.001-0.898,2.001-2.001
						c0-0.553,0.447-1,1-1s1,0.447,1,1C61.012,56.713,59.218,58.507,57.012,58.507z"/>
				</g>
			</g>
			<g>
				<g>
					<path d="M42.99,58.51c-4.411,0-8-3.589-8-8c0-0.553,0.447-1,1-1s1,0.447,1,1c0,3.309,2.691,6,6,6c0.553,0,1,0.447,1,1
						S43.543,58.51,42.99,58.51z"/>
				</g>
			</g>
			<g>
				<g>
					<path d="M59.996,55.507c-0.553,0-1-0.447-1-1v-3.001c0-0.553,0.447-1,1-1s1,0.447,1,1v3.001
						C60.996,55.06,60.549,55.507,59.996,55.507z"/>
				</g>
			</g>
			<g>
				<g>
					<path d="M35.988,51.508c-0.553,0-1-0.447-1-1v-3.003c0-0.553,0.447-1,1-1s1,0.447,1,1v3.003
						C36.988,51.061,36.541,51.508,35.988,51.508z"/>
				</g>
			</g>
			<g>
				<g>
					<path d="M56.996,55.507H42.99c-0.553,0-1-0.447-1-1s0.447-1,1-1h14.006c0.553,0,1,0.447,1,1S57.549,55.507,56.996,55.507z"/>
				</g>
			</g>
			<g>
				<g>
					<path d="M51.994,46.505c-0.553,0-1-0.447-1-1v-2.008c0-0.553,0.447-1,1-1s1,0.447,1,1v2.008
						C52.994,46.058,52.547,46.505,51.994,46.505z"/>
				</g>
			</g>
			<g>
				<g>
					<path d="M42.994,50.497c-1.654,0-3-1.346-3-3s1.346-3,3-3s3,1.346,3,3S44.648,50.497,42.994,50.497z M42.994,46.497
						c-0.552,0-1,0.448-1,1s0.448,1,1,1s1-0.448,1-1S43.546,46.497,42.994,46.497z"/>
				</g>
			</g>
			<g>
				<g>
					<path d="M56.996,49.506h-2.002c-0.553,0-1-0.447-1-1s0.447-1,1-1h2.002c0.553,0,1,0.447,1,1S57.549,49.506,56.996,49.506z"/>
				</g>
			</g>
		</g>
	</g>
	<g>
		<g>
			<g>
				<path d="M38.016,20.493h-30c-0.553,0-1-0.448-1-1s0.447-1,1-1h30c0.553,0,1,0.448,1,1S38.568,20.493,38.016,20.493z"/>
			</g>
		</g>
		<g>
			<g>
				<path d="M44.982,20.994c-0.262,0-0.522-0.102-0.719-0.305c-0.746-0.771-1.733-1.196-2.781-1.196h-0.001
					c-1.047,0-2.034,0.424-2.78,1.195c-0.385,0.397-1.018,0.406-1.414,0.022c-0.397-0.384-0.407-1.017-0.023-1.414
					c1.126-1.163,2.624-1.803,4.218-1.803c0.001,0,0.001,0,0.002,0c1.594,0,3.092,0.642,4.218,1.806
					c0.384,0.397,0.373,1.03-0.023,1.414C45.483,20.901,45.232,20.994,44.982,20.994z"/>
			</g>
		</g>
		<g>
			<g>
				<path d="M41.483,22.492c-0.001,0-0.001,0-0.002,0c-1.594,0-3.092-0.641-4.218-1.805c-0.384-0.397-0.374-1.03,0.023-1.414
					c0.397-0.383,1.03-0.374,1.414,0.023c0.746,0.771,1.733,1.195,2.781,1.195h0.001c1.047,0,2.035-0.424,2.781-1.194
					c0.384-0.398,1.019-0.405,1.413-0.022c0.397,0.384,0.407,1.018,0.022,1.414C44.574,21.853,43.077,22.492,41.483,22.492z"/>
			</g>
		</g>
		<g>
			<g>
				<path d="M38.016,20.493c-0.545,0-0.991-0.437-1-0.984c-0.026-1.633,0.586-3.159,1.724-4.296
					c1.137-1.136,2.658-1.735,4.293-1.719c0.553,0.009,0.992,0.464,0.983,1.017c-0.009,0.546-0.455,0.983-1,0.983
					c-0.024,0-0.058-0.001-0.087,0c-1.059,0-2.042,0.401-2.775,1.135c-0.751,0.75-1.155,1.762-1.138,2.849
					c0.009,0.552-0.432,1.007-0.984,1.016C38.026,20.493,38.021,20.493,38.016,20.493z"/>
			</g>
		</g>
		<g>
			<g>
				<path d="M41.071,19.512c-0.304,0-0.604-0.138-0.801-0.399c-0.331-0.442-0.242-1.069,0.199-1.4
					c1.002-0.753,1.565-1.921,1.546-3.203c-0.009-0.552,0.433-1.006,0.984-1.015c0.006,0,0.011,0,0.016,0
					c0.546,0,0.991,0.438,1,0.985c0.029,1.929-0.825,3.69-2.345,4.832C41.491,19.446,41.28,19.512,41.071,19.512z"/>
			</g>
		</g>
		<g>
			<g>
				<path d="M35.058,16.493c-0.553,0-1.005-0.448-1.005-1s0.442-1,0.994-1h0.011c0.552,0,1,0.448,1,1S35.609,16.493,35.058,16.493z"
					/>
			</g>
		</g>
		<g>
			<g>
				<path d="M31.058,12.493c-0.553,0-1.005-0.448-1.005-1s0.442-1,0.994-1h0.011c0.552,0,1,0.448,1,1S31.609,12.493,31.058,12.493z"
					/>
			</g>
		</g>
		<g>
			<g>
				<path d="M27.058,16.493c-0.553,0-1.005-0.448-1.005-1s0.442-1,0.994-1h0.011c0.552,0,1,0.448,1,1S27.609,16.493,27.058,16.493z"
					/>
			</g>
		</g>
		<g>
			<g>
				<g>
					<path d="M27.058,8.493c-0.553,0-1.005-0.448-1.005-1s0.442-1,0.994-1h0.011c0.552,0,1,0.448,1,1S27.609,8.493,27.058,8.493z"/>
				</g>
			</g>
			<g>
				<g>
					<path d="M23.058,12.493c-0.553,0-1.005-0.448-1.005-1s0.442-1,0.994-1h0.011c0.552,0,1,0.448,1,1S23.609,12.493,23.058,12.493z
						"/>
				</g>
			</g>
			<g>
				<g>
					<path d="M19.058,16.493c-0.553,0-1.005-0.448-1.005-1s0.442-1,0.994-1h0.011c0.552,0,1,0.448,1,1S19.609,16.493,19.058,16.493z
						"/>
				</g>
			</g>
		</g>
		<g>
			<g>
				<g>
					<path d="M19.058,8.493c-0.553,0-1.005-0.448-1.005-1s0.442-1,0.994-1h0.011c0.552,0,1,0.448,1,1S19.609,8.493,19.058,8.493z"/>
				</g>
			</g>
			<g>
				<g>
					<path d="M15.058,12.493c-0.553,0-1.005-0.448-1.005-1s0.442-1,0.994-1h0.011c0.552,0,1,0.448,1,1S15.609,12.493,15.058,12.493z
						"/>
				</g>
			</g>
			<g>
				<g>
					<path d="M11.058,16.493c-0.553,0-1.005-0.448-1.005-1s0.442-1,0.994-1h0.011c0.552,0,1,0.448,1,1S11.609,16.493,11.058,16.493z
						"/>
				</g>
			</g>
		</g>
	</g>
	<g>
		<g>
			<path d="M14,52.508c-0.553,0-1-0.447-1-1v-7.006c0-0.553,0.447-1,1-1s1,0.447,1,1v7.006C15,52.061,14.553,52.508,14,52.508z"/>
		</g>
	</g>
	<g>
		<g>
			<path d="M10,52.508c-0.553,0-1-0.447-1-1v-7.006c0-0.553,0.447-1,1-1s1,0.447,1,1v7.006C11,52.061,10.553,52.508,10,52.508z"/>
		</g>
	</g>
	<g>
		<g>
			<path d="M32,52.508c-0.553,0-1-0.447-1-1v-7.006c0-0.553,0.447-1,1-1s1,0.447,1,1v7.006C33,52.061,32.553,52.508,32,52.508z"/>
		</g>
	</g>
	<g>
		<g>
			<path d="M36,52.508H6.998c-0.553,0-1-0.447-1-1s0.447-1,1-1H36c0.553,0,1,0.447,1,1S36.553,52.508,36,52.508z"/>
		</g>
	</g>
	<g>
		<g>
			<path d="M6.998,61.5c-0.553,0-1-0.447-1-1v-8.992c0-0.553,0.447-1,1-1s1,0.447,1,1V60.5C7.998,61.053,7.551,61.5,6.998,61.5z"/>
		</g>
	</g>
	<g>
		<g>
			<path fill="none" stroke="#000000" stroke-width="2" stroke-linecap="round" stroke-linejoin="round" stroke-miterlimit="10" d="
				M36.668,44.501"/>
		</g>
	</g>
	<g>
		<g>
			<path d="M23,48.509c-3.976,0-8-1.378-8-4.012c0-0.553,0.447-1,1-1s1,0.447,1,1c0,0.709,2.278,2.012,6,2.012s6-1.303,6-2.012
				c0-0.553,0.447-1,1-1s1,0.447,1,1C31,47.131,26.976,48.509,23,48.509z"/>
		</g>
	</g>
</g>
</svg>
