<?xml version="1.0" encoding="utf-8"?>
<!-- Generator: Adobe Illustrator 16.0.0, SVG Export Plug-In . SVG Version: 6.00 Build 0)  -->
<!DOCTYPE svg PUBLIC "-//W3C//DTD SVG 1.1//EN" "http://www.w3.org/Graphics/SVG/1.1/DTD/svg11.dtd">
<svg version="1.1" id="icons" xmlns="http://www.w3.org/2000/svg" xmlns:xlink="http://www.w3.org/1999/xlink" x="0px" y="0px"
	 width="64px" height="64px" viewBox="0 0 64 64" enable-background="new 0 0 64 64" xml:space="preserve">
<g>
	<g>
		<g>
			<path fill="#ED5565" d="M46,44.5c0-1.66-1.34-3-3-3v-3c3.32,0,6,2.68,6,6v2.99h-3V44.5z"/>
		</g>
	</g>
	<g>
		<g>
			<polygon fill="#E6E9ED" points="43,41.5 43,42.5 39,42.5 39,40.49 39,38.5 43,38.5 			"/>
		</g>
	</g>
	<g>
		<g>
			<path fill="#ED5565" d="M43,32.5c6.63,0,12,5.36,12,12v2.99h-3V44.5c0-4.98-4.02-9-9-9v-1V32.5z"/>
		</g>
	</g>
	<g>
		<g>
			<path fill="#CCD1D9" d="M36,32.49v0.01c-0.01,1.66-1.34,2.99-3,2.99s-2.99-1.33-3-2.99v-0.01V18.5h6V32.49z"/>
		</g>
	</g>
	<g>
		<g>
			<polygon fill="#F5F7FA" points="43,35.5 43,38.5 39,38.5 39,34.5 43,34.5 			"/>
		</g>
	</g>
	<g>
		<g>
			<path fill="#E6E9ED" d="M38,12.5h2v2c0,2.21-1.79,4-4,4h-6H18c-1.65,0-3-1.34-3-3s1.35-3,3-3h10H38z"/>
		</g>
	</g>
	<g>
		<g>
			<path fill="#ED5565" d="M43,35.5c4.98,0,9,4.02,9,9v2.99h-3V44.5c0-3.32-2.68-6-6-6V35.5z"/>
		</g>
	</g>
	<g>
		<g>
			<path fill="#AAB2BD" d="M39,38.5v1.99h-9V32.5c0.01,1.66,1.34,2.99,3,2.99s2.99-1.33,3-2.99h0.01H39v2V38.5z"/>
		</g>
	</g>
	<g>
		<g>
			<path fill="#545C66" d="M38,7.5v1H28v-1c0-1.11,0.89-2,2-2h6C37.11,5.5,38,6.39,38,7.5z"/>
		</g>
	</g>
	<g>
		<g>
			<polygon fill="#E6E9ED" points="43,32.5 43,34.5 39,34.5 39,32.5 39,30.5 43,30.5 			"/>
		</g>
	</g>
	<g>
		<g>
			<rect x="28" y="8.5" fill="#656D78" width="10" height="4"/>
		</g>
	</g>
	<g>
		<g>
			<path fill="#656D78" d="M63,47.49v5.01c0,3.31-2.68,6-6,6H40c-3.31,0-6-2.69-6-6v-5.01h12h3h3h3H63z"/>
		</g>
	</g>
	<g>
		<g>
			<rect x="3" y="55.5" fill="#AAB2BD" width="6" height="3"/>
		</g>
	</g>
	<g>
		<g>
			<rect x="22" y="55.5" fill="#AAB2BD" width="6" height="3"/>
		</g>
	</g>
	<g>
		<g>
			<path fill="#656D78" d="M21,32.5c1.66,0,3,1.34,3,3c0,1.65-1.34,3-3,3c-1.65,0-3-1.35-3-3C18,33.84,19.35,32.5,21,32.5z"/>
		</g>
	</g>
	<g>
		<g>
			<path fill="#CCD1D9" d="M30,40.49V53.5c0,1.1-0.89,2-2,2h-6H9H3c-1.1,0-2-0.9-2-2v-21c0-3.32,2.69-6,6-6h17
				c3.32,0,5.99,2.67,6,5.99v0.01V40.49z M24,35.5c0-1.66-1.34-3-3-3c-1.65,0-3,1.34-3,3c0,1.65,1.35,3,3,3
				C22.66,38.5,24,37.15,24,35.5z"/>
		</g>
	</g>
</g>
<g>
	<g>
		<g>
			<path d="M1,33.498c-0.553,0-1-0.447-1-1c0-3.859,3.141-7,7-7c0.553,0,1,0.447,1,1s-0.447,1-1,1c-2.757,0-5,2.243-5,5
				C2,33.051,1.553,33.498,1,33.498z"/>
		</g>
	</g>
	<g>
		<g>
			<path d="M30,33.498c-0.553,0-1-0.447-1-1c0-2.757-2.243-5-5-5c-0.553,0-1-0.447-1-1s0.447-1,1-1c3.859,0,7,3.141,7,7
				C31,33.051,30.553,33.498,30,33.498z"/>
		</g>
	</g>
	<g>
		<g>
			<path d="M24,27.498H7c-0.553,0-1-0.447-1-1s0.447-1,1-1h17c0.553,0,1,0.447,1,1S24.553,27.498,24,27.498z"/>
		</g>
	</g>
	<g>
		<g>
			<path d="M3,56.499c-1.654,0-3-1.346-3-3c0-0.553,0.447-1,1-1s1,0.447,1,1c0,0.552,0.448,1,1,1c0.553,0,1,0.447,1,1
				S3.553,56.499,3,56.499z"/>
		</g>
	</g>
	<g>
		<g>
			<path d="M27.999,56.5c-0.553,0-1-0.447-1-1s0.447-1,1-1c0.552,0,1-0.448,1-1c0-0.553,0.447-1,1-1s1,0.447,1,1
				C30.999,55.154,29.653,56.5,27.999,56.5z"/>
		</g>
	</g>
	<g>
		<g>
			<path d="M27.999,56.499H3c-0.553,0-1-0.447-1-1s0.447-1,1-1h24.999c0.553,0,1,0.447,1,1S28.552,56.499,27.999,56.499z"/>
		</g>
	</g>
	<g>
		<g>
			<path d="M29.999,54.5c-0.553,0-1-0.447-1-1V32.498c0-0.553,0.447-1,1-1s1,0.447,1,1V53.5C30.999,54.053,30.552,54.5,29.999,54.5z
				"/>
		</g>
	</g>
	<g>
		<g>
			<path d="M1,54.499c-0.553,0-1-0.447-1-1V32.498c0-0.553,0.447-1,1-1s1,0.447,1,1v21.001C2,54.052,1.553,54.499,1,54.499z"/>
		</g>
	</g>
	<g>
		<g>
			<path d="M39,33.498h-2.994c-0.553,0-1-0.447-1-1s0.447-1,1-1H39c0.553,0,1,0.447,1,1S39.553,33.498,39,33.498z"/>
		</g>
	</g>
	<g>
		<g>
			<path d="M39,41.497h-9c-0.553,0-1-0.447-1-1s0.447-1,1-1h9c0.553,0,1,0.447,1,1S39.553,41.497,39,41.497z"/>
		</g>
	</g>
	<g>
		<g>
			<path d="M43,43.498h-4c-0.553,0-1-0.447-1-1v-12c0-0.553,0.447-1,1-1h4c0.553,0,1,0.447,1,1v12
				C44,43.051,43.553,43.498,43,43.498z M40,41.498h2v-10h-2V41.498z"/>
		</g>
	</g>
	<g>
		<g>
			<path d="M43,35.498h-4c-0.553,0-1-0.447-1-1s0.447-1,1-1h4c0.553,0,1,0.447,1,1S43.553,35.498,43,35.498z"/>
		</g>
	</g>
	<g>
		<g>
			<path d="M43,39.498h-4c-0.553,0-1-0.447-1-1s0.447-1,1-1h4c0.553,0,1,0.447,1,1S43.553,39.498,43,39.498z"/>
		</g>
	</g>
	<g>
		<g>
			<path d="M35.999,33.498c-0.553,0-1-0.447-1-1V18.501c0-0.553,0.447-1,1-1s1,0.447,1,1v13.997
				C36.999,33.051,36.552,33.498,35.999,33.498z"/>
		</g>
	</g>
	<g>
		<g>
			<path d="M29.997,33.498c-0.553,0-1-0.447-1-1V18.501c0-0.553,0.447-1,1-1s1,0.447,1,1v13.997
				C30.997,33.051,30.55,33.498,29.997,33.498z"/>
		</g>
	</g>
	<g>
		<g>
			<path d="M32.999,36.495c-2.206,0-4-1.794-4-4c0-0.553,0.447-1,1-1s1,0.447,1,1c0,1.103,0.897,2,2,2s2-0.897,2-2
				c0-0.553,0.447-1,1-1s1,0.447,1,1C36.999,34.701,35.205,36.495,32.999,36.495z"/>
		</g>
	</g>
	<g>
		<g>
			<path d="M35.998,19.502c-0.553,0-1-0.447-1-1s0.447-1,1-1c1.654,0,3.001-1.347,3.001-3.001c0-0.553,0.447-1,1-1s1,0.447,1,1
				C40.999,17.259,38.756,19.502,35.998,19.502z"/>
		</g>
	</g>
	<g>
		<g>
			<path d="M39.999,13.499H18.003c-0.553,0-1-0.447-1-1s0.447-1,1-1h21.996c0.553,0,1,0.447,1,1S40.552,13.499,39.999,13.499z"/>
		</g>
	</g>
	<g>
		<g>
			<path d="M39.999,15.501c-0.553,0-1-0.447-1-1v-2.002c0-0.553,0.447-1,1-1s1,0.447,1,1v2.002
				C40.999,15.054,40.552,15.501,39.999,15.501z"/>
		</g>
	</g>
	<g>
		<g>
			<path d="M18.002,19.502c-2.207,0-4.002-1.795-4.002-4.001c0-2.207,1.795-4.002,4.002-4.002c0.553,0,1,0.447,1,1s-0.447,1-1,1
				c-1.104,0-2.002,0.898-2.002,2.002s0.898,2.001,2.002,2.001c0.553,0,1,0.447,1,1S18.555,19.502,18.002,19.502z"/>
		</g>
	</g>
	<g>
		<g>
			<path d="M35.999,19.502H18.002c-0.553,0-1-0.447-1-1s0.447-1,1-1h17.997c0.553,0,1,0.447,1,1S36.552,19.502,35.999,19.502z"/>
		</g>
	</g>
	<g>
		<g>
			<path d="M27.999,13.499c-0.553,0-1-0.447-1-1V7.501c0-0.553,0.447-1,1-1s1,0.447,1,1v4.998
				C28.999,13.052,28.552,13.499,27.999,13.499z"/>
		</g>
	</g>
	<g>
		<g>
			<path d="M37.999,13.499c-0.553,0-1-0.447-1-1V7.501c0-0.553,0.447-1,1-1s1,0.447,1,1v4.998
				C38.999,13.052,38.552,13.499,37.999,13.499z"/>
		</g>
	</g>
	<g>
		<g>
			<path d="M27.999,8.501c-0.553,0-1-0.447-1-1c0-1.653,1.346-2.999,2.999-2.999c0.553,0,1,0.447,1,1s-0.447,1-1,1
				c-0.551,0-0.999,0.448-0.999,0.999C28.999,8.054,28.552,8.501,27.999,8.501z"/>
		</g>
	</g>
	<g>
		<g>
			<path d="M37.999,8.501c-0.553,0-1-0.447-1-1c0-0.551-0.448-0.999-0.999-0.999c-0.553,0-1-0.447-1-1s0.447-1,1-1
				c1.653,0,2.999,1.346,2.999,2.999C38.999,8.054,38.552,8.501,37.999,8.501z"/>
		</g>
	</g>
	<g>
		<g>
			<path d="M36,6.502h-6.002c-0.553,0-1-0.447-1-1s0.447-1,1-1H36c0.553,0,1,0.447,1,1S36.553,6.502,36,6.502z"/>
		</g>
	</g>
	<g>
		<g>
			<path d="M37.999,9.501h-10c-0.553,0-1-0.447-1-1s0.447-1,1-1h10c0.553,0,1,0.447,1,1S38.552,9.501,37.999,9.501z"/>
		</g>
	</g>
	<g>
		<g>
			<path d="M3,59.498c-0.553,0-1-0.447-1-1v-2.999c0-0.553,0.447-1,1-1s1,0.447,1,1v2.999C4,59.051,3.553,59.498,3,59.498z"/>
		</g>
	</g>
	<g>
		<g>
			<path d="M9,59.498H3c-0.553,0-1-0.447-1-1s0.447-1,1-1h6c0.553,0,1,0.447,1,1S9.553,59.498,9,59.498z"/>
		</g>
	</g>
	<g>
		<g>
			<path d="M9,59.498c-0.553,0-1-0.447-1-1v-2.999c0-0.553,0.447-1,1-1s1,0.447,1,1v2.999C10,59.051,9.553,59.498,9,59.498z"/>
		</g>
	</g>
	<g>
		<g>
			<path d="M22,59.498c-0.553,0-1-0.447-1-1v-2.999c0-0.553,0.447-1,1-1s1,0.447,1,1v2.999C23,59.051,22.553,59.498,22,59.498z"/>
		</g>
	</g>
	<g>
		<g>
			<path d="M28,59.498h-6c-0.553,0-1-0.447-1-1s0.447-1,1-1h6c0.553,0,1,0.447,1,1S28.553,59.498,28,59.498z"/>
		</g>
	</g>
	<g>
		<g>
			<path d="M28,59.498c-0.553,0-1-0.447-1-1v-2.999c0-0.553,0.447-1,1-1s1,0.447,1,1v2.999C29,59.051,28.553,59.498,28,59.498z"/>
		</g>
	</g>
	<g>
		<g>
			<path d="M40,59.498c-3.859,0-7-3.141-7-7c0-0.553,0.447-1,1-1s1,0.447,1,1c0,2.757,2.243,5,5,5c0.553,0,1,0.447,1,1
				S40.553,59.498,40,59.498z"/>
		</g>
	</g>
	<g>
		<g>
			<path d="M57,59.498c-0.553,0-1-0.447-1-1s0.447-1,1-1c2.757,0,5-2.243,5-5c0-0.553,0.447-1,1-1s1,0.447,1,1
				C64,56.357,60.859,59.498,57,59.498z"/>
		</g>
	</g>
	<g>
		<g>
			<path d="M57,59.498H40c-0.553,0-1-0.447-1-1s0.447-1,1-1h17c0.553,0,1,0.447,1,1S57.553,59.498,57,59.498z"/>
		</g>
	</g>
	<g>
		<g>
			<path d="M63,53.498c-0.553,0-1-0.447-1-1v-5.002c0-0.553,0.447-1,1-1s1,0.447,1,1v5.002C64,53.051,63.553,53.498,63,53.498z"/>
		</g>
	</g>
	<g>
		<g>
			<path d="M34,53.498c-0.553,0-1-0.447-1-1v-5.002c0-0.553,0.447-1,1-1s1,0.447,1,1v5.002C35,53.051,34.553,53.498,34,53.498z"/>
		</g>
	</g>
	<g>
		<g>
			<path d="M63,48.496H34c-0.553,0-1-0.447-1-1s0.447-1,1-1h29c0.553,0,1,0.447,1,1S63.553,48.496,63,48.496z"/>
		</g>
	</g>
	<g>
		<g>
			<path d="M46,45.5c-0.553,0-1-0.447-1-1c0-1.103-0.897-2-2-2c-0.553,0-1-0.447-1-1s0.447-1,1-1c2.206,0,4,1.794,4,4
				C47,45.053,46.553,45.5,46,45.5z"/>
		</g>
	</g>
	<g>
		<g>
			<path d="M49,45.5c-0.553,0-1-0.447-1-1c0-2.757-2.243-5-5-5c-0.553,0-1-0.447-1-1s0.447-1,1-1c3.859,0,7,3.141,7,7
				C50,45.053,49.553,45.5,49,45.5z"/>
		</g>
	</g>
	<g>
		<g>
			<path d="M52,45.5c-0.553,0-1-0.447-1-1c0-4.411-3.589-8-8-8c-0.553,0-1-0.447-1-1s0.447-1,1-1c5.514,0,10,4.486,10,10
				C53,45.053,52.553,45.5,52,45.5z"/>
		</g>
	</g>
	<g>
		<g>
			<path d="M55,45.5c-0.553,0-1-0.447-1-1c0-6.065-4.935-11-11-11c-0.553,0-1-0.447-1-1s0.447-1,1-1c7.168,0,13,5.832,13,13
				C56,45.053,55.553,45.5,55,45.5z"/>
		</g>
	</g>
	<g>
		<g>
			<path d="M46,48.496c-0.553,0-1-0.447-1-1V44.5c0-0.553,0.447-1,1-1s1,0.447,1,1v2.996C47,48.049,46.553,48.496,46,48.496z"/>
		</g>
	</g>
	<g>
		<g>
			<path d="M49,48.496c-0.553,0-1-0.447-1-1V44.5c0-0.553,0.447-1,1-1s1,0.447,1,1v2.996C50,48.049,49.553,48.496,49,48.496z"/>
		</g>
	</g>
	<g>
		<g>
			<path d="M52,48.496c-0.553,0-1-0.447-1-1V44.5c0-0.553,0.447-1,1-1s1,0.447,1,1v2.996C53,48.049,52.553,48.496,52,48.496z"/>
		</g>
	</g>
	<g>
		<g>
			<path d="M55,48.496c-0.553,0-1-0.447-1-1V44.5c0-0.553,0.447-1,1-1s1,0.447,1,1v2.996C56,48.049,55.553,48.496,55,48.496z"/>
		</g>
	</g>
	<g>
		<g>
			<path d="M21.001,39.498c-2.206,0-4-1.794-4-4s1.794-4,4-4s4,1.794,4,4S23.207,39.498,21.001,39.498z M21.001,33.498
				c-1.103,0-2,0.897-2,2s0.897,2,2,2s2-0.897,2-2S22.104,33.498,21.001,33.498z"/>
		</g>
	</g>
</g>
</svg>
