<?xml version="1.0" encoding="utf-8"?>
<!-- Generator: Adobe Illustrator 16.0.0, SVG Export Plug-In . SVG Version: 6.00 Build 0)  -->
<!DOCTYPE svg PUBLIC "-//W3C//DTD SVG 1.1//EN" "http://www.w3.org/Graphics/SVG/1.1/DTD/svg11.dtd">
<svg version="1.1" id="icons" xmlns="http://www.w3.org/2000/svg" xmlns:xlink="http://www.w3.org/1999/xlink" x="0px" y="0px"
	 width="64px" height="64px" viewBox="0 0 64 64" enable-background="new 0 0 64 64" xml:space="preserve">
<g>
	<g>
		<g>
			<polygon fill="#E9573F" points="63,28 63,36 59,34 59,30 			"/>
		</g>
	</g>
	<g>
		<g>
			<path fill="#D84B3B" d="M59,34v4c0,4.97-4.029,9-9,9H40c4.971,0,9-4.03,9-9V26c0-4.97-4.029-9-9-9h10c4.971,0,9,4.03,9,9v4V34z"
				/>
		</g>
	</g>
	<g>
		<g>
			<path fill="#E9573F" d="M29,26v12c0,4.97-4.029,9-9,9H10c4.971,0,9-4.03,9-9V26c0-4.97-4.029-9-9-9h10C24.971,17,29,21.03,29,26z
				"/>
		</g>
	</g>
	<g>
		<g>
			<path fill="#E9573F" d="M49,26v12c0,4.97-4.029,9-9,9H30c4.971,0,9-4.03,9-9V26c0-4.97-4.029-9-9-9h10C44.971,17,49,21.03,49,26z
				"/>
		</g>
	</g>
	<g>
		<g>
			<path fill="#EFACA0" d="M16,26v12c0,3.311-2.689,6-6,6c-3.31,0-6-2.689-6-6V26c0-3.31,2.69-6,6-6C13.311,20,16,22.69,16,26z"/>
		</g>
	</g>
	<g>
		<g>
			<path fill="#D84B3B" d="M39,26v12c0,4.97-4.029,9-9,9H20c4.971,0,9-4.03,9-9V26c0-4.97-4.029-9-9-9h10C34.971,17,39,21.03,39,26z
				"/>
		</g>
	</g>
	<g>
		<g>
			<path fill="#FC6E51" d="M10,44c3.311,0,6-2.689,6-6V26c0-3.31-2.689-6-6-6c-3.31,0-6,2.69-6,6v12C4,41.311,6.69,44,10,44z M10,17
				c4.971,0,9,4.03,9,9v12c0,4.97-4.029,9-9,9c-4.97,0-9-4.03-9-9V26C1,21.03,5.03,17,10,17z"/>
		</g>
	</g>
</g>
<g>
	<g>
		<g>
			<path d="M10,48.002c-5.514,0-10-4.486-10-10c0-0.553,0.447-1,1-1s1,0.447,1,1c0,4.411,3.589,8,8,8s8-3.589,8-8
				c0-0.553,0.447-1,1-1s1,0.447,1,1C20,43.516,15.514,48.002,10,48.002z"/>
		</g>
	</g>
	<g>
		<g>
			<path d="M19,26.998c-0.553,0-1-0.447-1-1c0-4.411-3.589-8-8-8s-8,3.589-8,8c0,0.553-0.447,1-1,1s-1-0.447-1-1
				c0-5.514,4.486-10,10-10s10,4.486,10,10C20,26.551,19.553,26.998,19,26.998z"/>
		</g>
	</g>
	<g>
		<g>
			<path d="M10,45.002c-3.859,0-7-3.141-7-7c0-0.553,0.447-1,1-1s1,0.447,1,1c0,2.757,2.243,5,5,5s5-2.243,5-5c0-0.553,0.447-1,1-1
				s1,0.447,1,1C17,41.861,13.859,45.002,10,45.002z"/>
		</g>
	</g>
	<g>
		<g>
			<path d="M15.997,26.998c-0.553,0-1-0.447-1-1c0-2.755-2.241-4.996-4.997-4.996s-4.997,2.241-4.997,4.996c0,0.553-0.447,1-1,1
				s-1-0.447-1-1c0-3.857,3.139-6.996,6.997-6.996s6.997,3.139,6.997,6.996C16.997,26.551,16.55,26.998,15.997,26.998z"/>
		</g>
	</g>
	<g>
		<g>
			<path d="M1,39.002c-0.553,0-1-0.447-1-1V25.998c0-0.553,0.447-1,1-1s1,0.447,1,1v12.004C2,38.555,1.553,39.002,1,39.002z"/>
		</g>
	</g>
	<g>
		<g>
			<path d="M4.003,39.002c-0.553,0-1-0.447-1-1V25.998c0-0.553,0.447-1,1-1s1,0.447,1,1v12.004
				C5.003,38.555,4.556,39.002,4.003,39.002z"/>
		</g>
	</g>
	<g>
		<g>
			<path d="M16,39.002c-0.553,0-1-0.447-1-1V25.998c0-0.553,0.447-1,1-1s1,0.447,1,1v12.004C17,38.555,16.553,39.002,16,39.002z"/>
		</g>
	</g>
	<g>
		<g>
			<path d="M19,39.002c-0.553,0-1-0.447-1-1V25.998c0-0.553,0.447-1,1-1s1,0.447,1,1v12.004C20,38.555,19.553,39.002,19,39.002z"/>
		</g>
	</g>
	<g>
		<g>
			<path d="M49.998,48.002c-0.553,0-1-0.447-1-1s0.447-1,1-1c4.411,0,8-3.589,8-8c0-0.553,0.447-1,1-1s1,0.447,1,1
				C59.998,43.516,55.512,48.002,49.998,48.002z"/>
		</g>
	</g>
	<g>
		<g>
			<path d="M58.998,26.998c-0.553,0-1-0.447-1-1c0-4.411-3.589-8-8-8c-0.553,0-1-0.447-1-1s0.447-1,1-1c5.514,0,10,4.486,10,10
				C59.998,26.551,59.551,26.998,58.998,26.998z"/>
		</g>
	</g>
	<g>
		<g>
			<path d="M58.998,39.002c-0.553,0-1-0.447-1-1V25.998c0-0.553,0.447-1,1-1s1,0.447,1,1v12.004
				C59.998,38.555,59.551,39.002,58.998,39.002z"/>
		</g>
	</g>
	<g>
		<g>
			<path d="M39.998,48.002c-0.553,0-1-0.447-1-1s0.447-1,1-1c4.411,0,8-3.589,8-8c0-0.553,0.447-1,1-1s1,0.447,1,1
				C49.998,43.516,45.512,48.002,39.998,48.002z"/>
		</g>
	</g>
	<g>
		<g>
			<path d="M48.998,26.998c-0.553,0-1-0.447-1-1c0-4.411-3.589-8-8-8c-0.553,0-1-0.447-1-1s0.447-1,1-1c5.514,0,10,4.486,10,10
				C49.998,26.551,49.551,26.998,48.998,26.998z"/>
		</g>
	</g>
	<g>
		<g>
			<path d="M48.998,39.002c-0.553,0-1-0.447-1-1V25.998c0-0.553,0.447-1,1-1s1,0.447,1,1v12.004
				C49.998,38.555,49.551,39.002,48.998,39.002z"/>
		</g>
	</g>
	<g>
		<g>
			<path d="M29.998,48.002c-0.553,0-1-0.447-1-1s0.447-1,1-1c4.411,0,8-3.589,8-8c0-0.553,0.447-1,1-1s1,0.447,1,1
				C39.998,43.516,35.512,48.002,29.998,48.002z"/>
		</g>
	</g>
	<g>
		<g>
			<path d="M38.998,26.998c-0.553,0-1-0.447-1-1c0-4.411-3.589-8-8-8c-0.553,0-1-0.447-1-1s0.447-1,1-1c5.514,0,10,4.486,10,10
				C39.998,26.551,39.551,26.998,38.998,26.998z"/>
		</g>
	</g>
	<g>
		<g>
			<path d="M38.998,39.002c-0.553,0-1-0.447-1-1V25.998c0-0.553,0.447-1,1-1s1,0.447,1,1v12.004
				C39.998,38.555,39.551,39.002,38.998,39.002z"/>
		</g>
	</g>
	<g>
		<g>
			<path d="M19.998,48.002c-0.553,0-1-0.447-1-1s0.447-1,1-1c4.411,0,8-3.589,8-8c0-0.553,0.447-1,1-1s1,0.447,1,1
				C29.998,43.516,25.512,48.002,19.998,48.002z"/>
		</g>
	</g>
	<g>
		<g>
			<path d="M28.998,26.998c-0.553,0-1-0.447-1-1c0-4.411-3.589-8-8-8c-0.553,0-1-0.447-1-1s0.447-1,1-1c5.514,0,10,4.486,10,10
				C29.998,26.551,29.551,26.998,28.998,26.998z"/>
		</g>
	</g>
	<g>
		<g>
			<path d="M28.998,39.002c-0.553,0-1-0.447-1-1V25.998c0-0.553,0.447-1,1-1s1,0.447,1,1v12.004
				C29.998,38.555,29.551,39.002,28.998,39.002z"/>
		</g>
	</g>
	<g>
		<g>
			<path d="M49.998,17.998H10c-0.553,0-1-0.447-1-1s0.447-1,1-1h39.998c0.553,0,1,0.447,1,1S50.551,17.998,49.998,17.998z"/>
		</g>
	</g>
	<g>
		<g>
			<path d="M49.998,48.002H10c-0.553,0-1-0.447-1-1s0.447-1,1-1h39.998c0.553,0,1,0.447,1,1S50.551,48.002,49.998,48.002z"/>
		</g>
	</g>
	<g>
		<g>
			<path d="M58.999,31c-0.367,0-0.721-0.202-0.896-0.553c-0.247-0.494-0.047-1.095,0.447-1.342l4.002-2
				c0.495-0.246,1.096-0.047,1.342,0.447c0.247,0.494,0.047,1.095-0.447,1.342l-4.002,2C59.302,30.966,59.149,31,58.999,31z"/>
		</g>
	</g>
	<g>
		<g>
			<path d="M62.999,37.002c-0.15,0-0.303-0.034-0.446-0.105l-4.002-2c-0.494-0.247-0.694-0.848-0.447-1.342
				c0.246-0.494,0.847-0.692,1.342-0.447l4.002,2c0.494,0.247,0.694,0.848,0.447,1.342C63.72,36.8,63.366,37.002,62.999,37.002z"/>
		</g>
	</g>
	<g>
		<g>
			<path d="M63,37.002c-0.553,0-1-0.447-1-1V28c0-0.553,0.447-1,1-1s1,0.447,1,1v8.002C64,36.555,63.553,37.002,63,37.002z"/>
		</g>
	</g>
	<g>
		<g>
			<g>
				<path d="M6.028,37.004c-0.553,0-1.005-0.447-1.005-1s0.442-1,0.994-1h0.011c0.552,0,1,0.447,1,1S6.58,37.004,6.028,37.004z"/>
			</g>
		</g>
		<g>
			<g>
				<path d="M10.028,41.004c-0.553,0-1.005-0.447-1.005-1s0.442-1,0.994-1h0.011c0.552,0,1,0.447,1,1S10.58,41.004,10.028,41.004z"
					/>
			</g>
		</g>
		<g>
			<g>
				<path d="M6.028,29.004c-0.553,0-1.005-0.447-1.005-1s0.442-1,0.994-1h0.011c0.552,0,1,0.447,1,1S6.58,29.004,6.028,29.004z"/>
			</g>
		</g>
		<g>
			<g>
				<path d="M10.028,33.004c-0.553,0-1.005-0.447-1.005-1s0.442-1,0.994-1h0.011c0.552,0,1,0.447,1,1S10.58,33.004,10.028,33.004z"
					/>
			</g>
		</g>
		<g>
			<g>
				<path d="M14.028,37.004c-0.553,0-1.005-0.447-1.005-1s0.442-1,0.994-1h0.011c0.552,0,1,0.447,1,1S14.58,37.004,14.028,37.004z"
					/>
			</g>
		</g>
		<g>
			<g>
				<path d="M10.028,25.004c-0.553,0-1.005-0.447-1.005-1s0.442-1,0.994-1h0.011c0.552,0,1,0.447,1,1S10.58,25.004,10.028,25.004z"
					/>
			</g>
		</g>
		<g>
			<g>
				<path d="M14.028,29.004c-0.553,0-1.005-0.447-1.005-1s0.442-1,0.994-1h0.011c0.552,0,1,0.447,1,1S14.58,29.004,14.028,29.004z"
					/>
			</g>
		</g>
	</g>
</g>
</svg>
