<?xml version="1.0" encoding="utf-8"?>
<!-- Generator: Adobe Illustrator 16.0.0, SVG Export Plug-In . SVG Version: 6.00 Build 0)  -->
<!DOCTYPE svg PUBLIC "-//W3C//DTD SVG 1.1//EN" "http://www.w3.org/Graphics/SVG/1.1/DTD/svg11.dtd">
<svg version="1.1" id="icons" xmlns="http://www.w3.org/2000/svg" xmlns:xlink="http://www.w3.org/1999/xlink" x="0px" y="0px"
	 width="64px" height="64px" viewBox="0 0 64 64" enable-background="new 0 0 64 64" xml:space="preserve">
<g>
	<g>
		<g>
			<path fill="#D3374E" d="M62.998,5.238l-4.38,2.98c-0.36-0.55-0.79-1.08-1.271-1.56c-0.479-0.48-1.01-0.91-1.56-1.271l2.97-4.39
				L62.998,5.238z"/>
		</g>
	</g>
	<g>
		<g>
			<path fill="#DA4453" d="M58.618,8.219c2.569,3.88,2.149,9.16-1.271,12.58l-35.03,35.03c3.9-3.91,3.9-10.24,0-14.141
				c-3.909-3.91-10.239-3.91-14.14,0l35.03-35.029c3.42-3.421,8.7-3.851,12.58-1.271c0.55,0.36,1.08,0.79,1.56,1.271
				C57.828,7.139,58.258,7.669,58.618,8.219z"/>
		</g>
	</g>
	<g>
		<g>
			<path fill="#ED5565" d="M22.317,41.688c3.9,3.9,3.9,10.23,0,14.141l-4.239,4.239c-3.91,3.91-10.24,3.91-14.15,0
				c-3.9-3.899-3.9-10.239,0-14.14l4.25-4.24C12.078,37.778,18.408,37.778,22.317,41.688z"/>
		</g>
	</g>
</g>
<g>
	<g>
		<g>
			<g>
				<g>
					<path d="M11.002,63.994c-2.817,0-5.634-1.071-7.779-3.216c-4.288-4.29-4.288-11.268,0-15.556c0.391-0.391,1.023-0.391,1.414,0
						s0.391,1.023,0,1.414c-3.508,3.508-3.508,9.218,0,12.728c3.51,3.508,9.219,3.508,12.729,0c0.391-0.391,1.023-0.391,1.414,0
						s0.391,1.023,0,1.414C16.636,62.923,13.818,63.994,11.002,63.994z"/>
				</g>
			</g>
			<g>
				<g>
					<path d="M22.316,56.827c-0.256,0-0.512-0.098-0.707-0.293c-0.391-0.391-0.391-1.023,0-1.414c3.509-3.509,3.509-9.218,0-12.727
						c-1.7-1.7-3.961-2.637-6.364-2.637c-2.404,0-4.663,0.937-6.362,2.637c-0.391,0.391-1.023,0.391-1.414,0
						c-0.391-0.39-0.391-1.023,0-1.414c2.076-2.078,4.838-3.223,7.776-3.223c2.938,0,5.7,1.145,7.778,3.223
						c4.288,4.288,4.288,11.267,0,15.555C22.828,56.729,22.572,56.827,22.316,56.827z"/>
				</g>
			</g>
			<g>
				<g>
					<path d="M57.342,21.801c-0.256,0-0.512-0.098-0.707-0.293c-0.391-0.391-0.391-1.023,0-1.414
						c3.508-3.508,3.509-9.218,0.002-12.729c-3.512-3.508-9.223-3.506-12.729,0.001c-0.391,0.391-1.023,0.391-1.414,0
						s-0.391-1.023,0-1.414c4.288-4.288,11.267-4.287,15.557-0.001c4.286,4.291,4.285,11.27-0.002,15.557
						C57.854,21.703,57.598,21.801,57.342,21.801z"/>
				</g>
			</g>
			<g>
				<g>
					<path d="M18.072,61.071c-0.256,0-0.512-0.098-0.707-0.293c-0.391-0.391-0.391-1.023,0-1.414l39.273-39.273
						c0.391-0.391,1.023-0.391,1.414,0s0.391,1.023,0,1.414L18.779,60.778C18.584,60.974,18.328,61.071,18.072,61.071z"/>
				</g>
			</g>
			<g>
				<g>
					<path d="M3.93,46.93c-0.256,0-0.512-0.098-0.707-0.293c-0.391-0.391-0.391-1.023,0-1.414L42.498,5.947
						c0.391-0.391,1.023-0.391,1.414,0s0.391,1.023,0,1.414L4.637,46.637C4.441,46.832,4.186,46.93,3.93,46.93z"/>
				</g>
			</g>
		</g>
		<g>
			<g>
				<path d="M55.784,6.387c-0.193,0-0.388-0.056-0.561-0.172c-0.457-0.311-0.576-0.932-0.267-1.39l2.973-4.386
					c0.311-0.457,0.931-0.574,1.39-0.267c0.457,0.311,0.576,0.932,0.267,1.39l-2.973,4.386C56.42,6.233,56.104,6.387,55.784,6.387z"
					/>
			</g>
		</g>
		<g>
			<g>
				<path d="M58.616,9.215c-0.32,0-0.635-0.153-0.828-0.438c-0.311-0.457-0.191-1.079,0.266-1.389l4.383-2.973
					c0.456-0.312,1.078-0.191,1.389,0.266s0.191,1.079-0.266,1.389l-4.383,2.973C59.005,9.159,58.81,9.215,58.616,9.215z"/>
			</g>
		</g>
		<g>
			<g>
				<path d="M62.998,6.242c-0.256,0-0.512-0.098-0.707-0.293l-4.24-4.241c-0.391-0.391-0.391-1.023,0-1.414s1.023-0.391,1.414,0
					l4.24,4.241c0.391,0.391,0.391,1.023,0,1.414C63.51,6.145,63.254,6.242,62.998,6.242z"/>
			</g>
		</g>
	</g>
	<g>
		<g>
			<g>
				<path d="M7.47,51.897c-0.553,0-1.005-0.447-1.005-1s0.442-1,0.994-1H7.47c0.552,0,1,0.447,1,1S8.021,51.897,7.47,51.897z"/>
			</g>
		</g>
		<g>
			<g>
				<path d="M7.47,57.555c-0.553,0-1.005-0.447-1.005-1s0.442-1,0.994-1H7.47c0.552,0,1,0.447,1,1S8.021,57.555,7.47,57.555z"/>
			</g>
		</g>
		<g>
			<g>
				<path d="M13.126,46.241c-0.553,0-1.005-0.447-1.005-1s0.442-1,0.994-1h0.011c0.552,0,1,0.447,1,1S13.678,46.241,13.126,46.241z"
					/>
			</g>
		</g>
		<g>
			<g>
				<path d="M13.126,51.897c-0.553,0-1.005-0.447-1.005-1s0.442-1,0.994-1h0.011c0.552,0,1,0.447,1,1S13.678,51.897,13.126,51.897z"
					/>
			</g>
		</g>
		<g>
			<g>
				<path d="M13.126,57.555c-0.553,0-1.005-0.447-1.005-1s0.442-1,0.994-1h0.011c0.552,0,1,0.447,1,1S13.678,57.555,13.126,57.555z"
					/>
			</g>
		</g>
		<g>
			<g>
				<path d="M18.782,46.241c-0.553,0-1.005-0.447-1.005-1s0.442-1,0.994-1h0.011c0.552,0,1,0.447,1,1S19.334,46.241,18.782,46.241z"
					/>
			</g>
		</g>
		<g>
			<g>
				<path d="M18.782,51.897c-0.553,0-1.005-0.447-1.005-1s0.442-1,0.994-1h0.011c0.552,0,1,0.447,1,1S19.334,51.897,18.782,51.897z"
					/>
			</g>
		</g>
	</g>
</g>
</svg>
