<?xml version="1.0" encoding="utf-8"?>
<!-- Generator: Adobe Illustrator 16.0.0, SVG Export Plug-In . SVG Version: 6.00 Build 0)  -->
<!DOCTYPE svg PUBLIC "-//W3C//DTD SVG 1.1//EN" "http://www.w3.org/Graphics/SVG/1.1/DTD/svg11.dtd">
<svg version="1.1" id="icons" xmlns="http://www.w3.org/2000/svg" xmlns:xlink="http://www.w3.org/1999/xlink" x="0px" y="0px"
	 width="64px" height="64px" viewBox="0 0 64 64" enable-background="new 0 0 64 64" xml:space="preserve">
<g>
	<g>
		<g>
			<polygon fill="#F7C292" points="47,4 47,13.01 44,13.01 44,4 44,1 			"/>
		</g>
	</g>
	<g>
		<g>
			<polygon fill="#FFD2A6" points="20,4 20,13.01 17,13.01 17,4 20,1 			"/>
		</g>
	</g>
	<g>
		<g>
			<polygon fill="#FFD2A6" points="35,4 35,13.01 32,13.01 32,4 32,1 			"/>
		</g>
	</g>
	<g>
		<g>
			<rect x="29" y="4" fill="#EFB381" width="3" height="9.01"/>
		</g>
	</g>
	<g>
		<g>
			<polygon fill="#F7C292" points="32,1 32,4 29,4 20,4 20,1 			"/>
		</g>
	</g>
	<g>
		<g>
			<polygon fill="#EFB381" points="32,1 44,1 44,4 35,4 			"/>
		</g>
	</g>
	<g>
		<g>
			<polygon fill="#EFB381" points="60,63 48,63 54,58 			"/>
		</g>
	</g>
	<g>
		<g>
			<polygon fill="#F7C292" points="54,13.02 54,58 48,63 48,13.01 54,13.01 			"/>
		</g>
	</g>
	<g>
		<g>
			<polygon fill="#FFD2A6" points="60,13.01 60,63 54,58 54,13.02 54,13.01 			"/>
		</g>
	</g>
	<g>
		<g>
			<path fill="#E6E9ED" d="M20.01,28.99c1.101,0,2,0.89,2,2c0,1.1-0.899,2-2,2c-1.109,0-2-0.9-2-2
				C18.01,29.88,18.9,28.99,20.01,28.99z"/>
		</g>
	</g>
	<g>
		<g>
			<path fill="#DA4453" d="M40.01,35v2.99V38c-0.01,2.21-1.79,3.99-4,3.99H20c-4.42,0-7.99-3.57-8-7.99v-0.01V31c0,4.42,3.58,8,8,8
				h16.01C38.22,39,40.01,37.21,40.01,35z"/>
		</g>
	</g>
	<g>
		<g>
			<path fill="#ED5565" d="M36.01,31c2.21,0,4,1.79,4,4s-1.79,4-4,4H20c-4.42,0-8-3.58-8-8s3.58-8,8-8v-0.01h6.01
				c1.66,0,2.99,1.34,2.99,3h0.01V28c0,1.65,1.34,3,3,3H36.01z M22.01,30.99c0-1.11-0.899-2-2-2c-1.109,0-2,0.89-2,2
				c0,1.1,0.891,2,2,2C21.11,32.99,22.01,32.09,22.01,30.99z"/>
		</g>
	</g>
	<g>
		<g>
			<path fill="#FFD2A6" d="M48,13.01V63H4V13.01h13h3h9h3h3h9h3H48z M40.01,38v-0.01V35c0-2.21-1.79-4-4-4h-4c-1.66,0-3-1.35-3-3
				v-2.01H29c0-1.66-1.33-3-2.99-3H20V23c-4.42,0-8,3.58-8,8v2.99V34c0.01,4.42,3.58,7.99,8,7.99h16.01
				C38.22,41.99,40,40.21,40.01,38z"/>
		</g>
	</g>
</g>
<g>
	<g>
		<g>
			<g>
				<path d="M48,64H4c-0.553,0-1-0.447-1-1V13.01c0-0.553,0.447-1,1-1s1,0.447,1,1V62h42V13.01c0-0.553,0.447-1,1-1s1,0.447,1,1V63
					C49,63.553,48.553,64,48,64z"/>
			</g>
		</g>
		<g>
			<g>
				<path d="M60,64H48c-0.553,0-1-0.447-1-1V13.01c0-0.553,0.447-1,1-1s1,0.447,1,1V62h10V13.01c0-0.553,0.447-1,1-1s1,0.447,1,1V63
					C61,63.553,60.553,64,60,64z"/>
			</g>
		</g>
		<g>
			<g>
				<path d="M54,59c-0.553,0-1-0.447-1-1V13.014c0-0.553,0.447-1,1-1s1,0.447,1,1V58C55,58.553,54.553,59,54,59z"/>
			</g>
		</g>
		<g>
			<g>
				<path d="M48.001,64c-0.287,0-0.571-0.122-0.77-0.359c-0.354-0.425-0.296-1.056,0.128-1.409l6-5
					c0.426-0.353,1.055-0.296,1.409,0.128c0.354,0.425,0.296,1.056-0.128,1.409l-6,5C48.453,63.924,48.227,64,48.001,64z"/>
			</g>
		</g>
		<g>
			<g>
				<path d="M59.999,64c-0.226,0-0.452-0.076-0.64-0.231l-6-5c-0.424-0.354-0.481-0.984-0.128-1.409
					c0.354-0.424,0.983-0.48,1.409-0.128l6,5c0.424,0.354,0.481,0.984,0.128,1.409C60.57,63.878,60.286,64,59.999,64z"/>
			</g>
		</g>
	</g>
	<g>
		<g>
			<path d="M39,49.006H13c-0.553,0-1-0.447-1-1s0.447-1,1-1h26c0.553,0,1,0.447,1,1S39.553,49.006,39,49.006z"/>
		</g>
	</g>
	<g>
		<g>
			<path d="M39,52.006H13c-0.553,0-1-0.447-1-1s0.447-1,1-1h26c0.553,0,1,0.447,1,1S39.553,52.006,39,52.006z"/>
		</g>
	</g>
	<g>
		<g>
			<path d="M32,55.004H20c-0.553,0-1-0.447-1-1s0.447-1,1-1h12c0.553,0,1,0.447,1,1S32.553,55.004,32,55.004z"/>
		</g>
	</g>
	<g>
		<g>
			<path d="M60,14.01H4c-0.553,0-1-0.447-1-1s0.447-1,1-1h56c0.553,0,1,0.447,1,1S60.553,14.01,60,14.01z"/>
		</g>
	</g>
	<g>
		<g>
			<g>
				<path d="M17.001,14.014c-0.553,0-1-0.447-1-1V4.001c0-0.553,0.447-1,1-1s1,0.447,1,1v9.013
					C18.001,13.566,17.554,14.014,17.001,14.014z"/>
			</g>
		</g>
		<g>
			<g>
				<path d="M20.001,14.014c-0.553,0-1-0.447-1-1V1c0-0.553,0.447-1,1-1s1,0.447,1,1v12.014
					C21.001,13.566,20.554,14.014,20.001,14.014z"/>
			</g>
		</g>
		<g>
			<g>
				<path d="M32.003,5.001H20.001c-0.553,0-1-0.447-1-1s0.447-1,1-1h12.002c0.553,0,1,0.447,1,1S32.556,5.001,32.003,5.001z"/>
			</g>
		</g>
		<g>
			<g>
				<path d="M32.003,2H20.001c-0.553,0-1-0.447-1-1s0.447-1,1-1h12.002c0.553,0,1,0.447,1,1S32.556,2,32.003,2z"/>
			</g>
		</g>
		<g>
			<g>
				<path d="M17.001,5.001c-0.256,0-0.512-0.098-0.707-0.293c-0.391-0.391-0.391-1.023,0-1.414l3-3.001
					c0.391-0.391,1.023-0.391,1.414,0s0.391,1.023,0,1.414l-3,3.001C17.513,4.903,17.257,5.001,17.001,5.001z"/>
			</g>
		</g>
		<g>
			<g>
				<path d="M35.003,14.014c-0.553,0-1-0.447-1-1V4.001c0-0.553,0.447-1,1-1s1,0.447,1,1v9.013
					C36.003,13.566,35.556,14.014,35.003,14.014z"/>
			</g>
		</g>
		<g>
			<g>
				<path d="M32.003,14.014c-0.553,0-1-0.447-1-1V1c0-0.553,0.447-1,1-1s1,0.447,1,1v12.014
					C33.003,13.566,32.556,14.014,32.003,14.014z"/>
			</g>
		</g>
		<g>
			<g>
				<path d="M35.003,5.001c-0.256,0-0.512-0.098-0.707-0.293l-3-3.001c-0.391-0.391-0.391-1.023,0-1.414s1.023-0.391,1.414,0
					l3,3.001c0.391,0.391,0.391,1.023,0,1.414C35.515,4.903,35.259,5.001,35.003,5.001z"/>
			</g>
		</g>
	</g>
	<g>
		<g>
			<g>
				<path d="M29,14.014c-0.553,0-1-0.447-1-1V4.001c0-0.553,0.447-1,1-1s1,0.447,1,1v9.013C30,13.566,29.553,14.014,29,14.014z"/>
			</g>
		</g>
		<g>
			<g>
				<path d="M44.002,5.001h-8.999c-0.553,0-1-0.447-1-1s0.447-1,1-1h8.999c0.553,0,1,0.447,1,1S44.555,5.001,44.002,5.001z"/>
			</g>
		</g>
		<g>
			<g>
				<path d="M44.002,2H32c-0.553,0-1-0.447-1-1s0.447-1,1-1h12.002c0.553,0,1,0.447,1,1S44.555,2,44.002,2z"/>
			</g>
		</g>
		<g>
			<g>
				<path d="M47.002,14.014c-0.553,0-1-0.447-1-1V4.001c0-0.553,0.447-1,1-1s1,0.447,1,1v9.013
					C48.002,13.566,47.555,14.014,47.002,14.014z"/>
			</g>
		</g>
		<g>
			<g>
				<path d="M44.002,14.014c-0.553,0-1-0.447-1-1V1c0-0.553,0.447-1,1-1s1,0.447,1,1v12.014
					C45.002,13.566,44.555,14.014,44.002,14.014z"/>
			</g>
		</g>
		<g>
			<g>
				<path d="M47.002,5.001c-0.256,0-0.512-0.098-0.707-0.293l-3-3.001c-0.391-0.391-0.391-1.023,0-1.414s1.023-0.391,1.414,0
					l3,3.001c0.391,0.391,0.391,1.023,0,1.414C47.514,4.903,47.258,5.001,47.002,5.001z"/>
			</g>
		</g>
	</g>
	<g>
		<g>
			<g>
				<g>
					<path d="M36.012,39.994c-0.552,0-1-0.446-1-0.999c0-0.552,0.447-0.998,0.999-0.999c1.655-0.002,3.001-1.348,3.001-3.002
						s-1.346-3-3-3c-0.553,0-1-0.447-1-1s0.447-1,1-1c2.757,0,5,2.243,5,5S38.769,39.994,36.012,39.994z"/>
				</g>
			</g>
			<g>
				<g>
					<path d="M36.012,42.983c-0.552,0-1-0.446-1-0.999c0-0.552,0.447-0.998,0.999-0.999c1.655-0.002,3.001-1.348,3.001-3.002
						c0-0.553,0.447-1,1-1s1,0.447,1,1C41.012,40.74,38.769,42.983,36.012,42.983z"/>
				</g>
			</g>
			<g>
				<g>
					<path d="M20.002,39.995c-4.963,0-9-4.037-9-9c0-4.964,4.037-9.002,9-9.002c0.553,0,1,0.447,1,1s-0.447,1-1,1
						c-3.859,0-7,3.141-7,7.002c0,3.859,3.141,7,7,7c0.553,0,1,0.447,1,1S20.555,39.995,20.002,39.995z"/>
				</g>
			</g>
			<g>
				<g>
					<path d="M20.002,42.984c-4.963,0-9-4.037-9-9c0-0.553,0.447-1,1-1s1,0.447,1,1c0,3.859,3.141,7,7,7c0.553,0,1,0.447,1,1
						S20.555,42.984,20.002,42.984z"/>
				</g>
			</g>
			<g>
				<g>
					<path d="M32.006,31.991c-2.206,0-4-1.794-4-4c0-0.553,0.447-1,1-1s1,0.447,1,1c0,1.103,0.897,2,2,2c0.553,0,1,0.447,1,1
						S32.559,31.991,32.006,31.991z"/>
				</g>
			</g>
			<g>
				<g>
					<path d="M29.002,26.983c-0.553,0-1-0.447-1-1c0-1.101-0.896-1.996-1.996-1.996c-0.553,0-1-0.447-1-1s0.447-1,1-1
						c2.203,0,3.996,1.793,3.996,3.996C30.002,26.536,29.555,26.983,29.002,26.983z"/>
				</g>
			</g>
			<g>
				<g>
					<path d="M26.006,23.987h-6.004c-0.553,0-1-0.447-1-1s0.447-1,1-1h6.004c0.553,0,1,0.447,1,1S26.559,23.987,26.006,23.987z"/>
				</g>
			</g>
			<g>
				<g>
					<path d="M40.011,38.994c-0.553,0-1-0.447-1-1v-3.001c0-0.553,0.447-1,1-1s1,0.447,1,1v3.001
						C41.011,38.547,40.563,38.994,40.011,38.994z"/>
				</g>
			</g>
			<g>
				<g>
					<path d="M11.999,34.995c-0.553,0-1-0.447-1-1v-3.003c0-0.553,0.447-1,1-1s1,0.447,1,1v3.003
						C12.999,34.548,12.552,34.995,11.999,34.995z"/>
				</g>
			</g>
			<g>
				<g>
					<path d="M36.012,39.995h-16.01c-0.553,0-1-0.447-1-1s0.447-1,1-1h16.01c0.553,0,1,0.447,1,1S36.564,39.995,36.012,39.995z"/>
				</g>
			</g>
			<g>
				<g>
					<path d="M29.006,28.991c-0.553,0-1-0.447-1-1v-2.008c0-0.553,0.447-1,1-1s1,0.447,1,1v2.008
						C30.006,28.544,29.559,28.991,29.006,28.991z"/>
				</g>
			</g>
			<g>
				<g>
					<path d="M20.006,33.984c-1.654,0-3-1.346-3-3s1.346-3,3-3s3,1.346,3,3S21.66,33.984,20.006,33.984z M20.006,29.984
						c-0.552,0-1,0.448-1,1s0.448,1,1,1s1-0.448,1-1S20.558,29.984,20.006,29.984z"/>
				</g>
			</g>
			<g>
				<g>
					<path d="M36.01,31.992h-4.004c-0.553,0-1-0.447-1-1s0.447-1,1-1h4.004c0.553,0,1,0.447,1,1S36.563,31.992,36.01,31.992z"/>
				</g>
			</g>
		</g>
		<g>
			<g>
				<path d="M36.012,42.984h-16.01c-0.553,0-1-0.447-1-1s0.447-1,1-1h16.01c0.553,0,1,0.447,1,1S36.564,42.984,36.012,42.984z"/>
			</g>
		</g>
	</g>
</g>
</svg>
